<svg width="512" height="512" viewBox="0 0 512 512" xmlns="http://www.w3.org/2000/svg">
  <defs>
    <linearGradient id="bg" x1="0" y1="0" x2="1" y2="1">
      <stop offset="0%" stop-color="#102B46"/>
      <stop offset="100%" stop-color="#0F7A69"/>
    </linearGradient>
    <linearGradient id="db" x1="0" y1="0" x2="0" y2="1">
      <stop offset="0%" stop-color="#9FE8D8"/>
      <stop offset="100%" stop-color="#3BB39A"/>
    </linearGradient>
  </defs>

  <rect x="28" y="28" width="456" height="456" rx="96" fill="url(#bg)"/>

  <ellipse cx="256" cy="170" rx="126" ry="44" fill="url(#db)"/>
  <rect x="130" y="170" width="252" height="170" fill="url(#db)"/>
  <ellipse cx="256" cy="340" rx="126" ry="44" fill="#2A9A84"/>

  <ellipse cx="256" cy="215" rx="108" ry="33" fill="none" stroke="#E8FFF8" stroke-width="10" opacity="0.68"/>
  <ellipse cx="256" cy="262" rx="108" ry="33" fill="none" stroke="#E8FFF8" stroke-width="10" opacity="0.58"/>
  <ellipse cx="256" cy="309" rx="108" ry="33" fill="none" stroke="#E8FFF8" stroke-width="10" opacity="0.48"/>

  <g transform="translate(350,118)">
    <circle cx="0" cy="0" r="24" fill="#D6FFF6" opacity="0.95"/>
    <path d="M0 -30 L7 -7 L30 0 L7 7 L0 30 L-7 7 L-30 0 L-7 -7 Z" fill="#FFFFFF"/>
  </g>
</svg>
